<svg xmlns="http://www.w3.org/2000/svg" version="1.1" xmlns:xlink="http://www.w3.org/1999/xlink" xmlns:svgjs="http://svgjs.dev/svgjs" viewBox="0 0 1.3199729908370588 1.3126843425677086"><g transform="matrix(1,0,0,1,-1.7009754186439703,-0.42665782871614555)"><g transform="matrix(1,0,0,1,0,0)"><g clip-path="url(#SvgjsClipPath1001)"><path d=" M 2.896677561859737 1.083 C 2.896677561859737 1.3808803142264217 2.655197904154247 1.6223599719319122 2.357317589927825 1.6223599719319122 C 2.059437275701403 1.6223599719319122 1.8179576179959125 1.3808803142264217 1.8179576179959125 1.083 C 1.8179576179959125 0.7851196857735782 2.059437275701403 0.5436400280680876 2.357317589927825 0.5436400280680876 C 2.655197904154247 0.5436400280680876 2.896677561859737 0.7851196857735782 2.896677561859737 1.083 Z" fill="#000000" transform="matrix(1,0,0,1,0,0)" fill-rule="nonzero"></path></g></g><g transform="matrix(1,0,0,1,0,0)"><path d=" M 2.1649209697265626 0.9108029999999999 Q 2.1959259697265625 0.9108029999999999 2.2150059697265623 0.9201044999999999 Q 2.2340859697265625 0.929406 2.2507809697265624 0.941808 Q 2.2569819697265623 0.9465779999999999 2.2603209697265623 0.9465779999999999 Q 2.2693839697265625 0.9465779999999999 2.2722459697265625 0.9174809999999999 L 2.2832169697265625 0.9174809999999999 Q 2.2822629697265624 0.9351299999999999 2.2817859697265623 0.9604109999999999 Q 2.2813089697265623 0.9856919999999999 2.2813089697265623 1.027191 L 2.270337969726562 1.027191 Q 2.2669989697265622 1.0071569999999999 2.2622289697265625 0.9885539999999999 Q 2.2574589697265623 0.9699509999999999 2.2464879697265623 0.9565949999999999 Q 2.2326549697265623 0.9389459999999998 2.2102359697265626 0.9291674999999999 Q 2.1878169697265624 0.9193889999999999 2.1639669697265624 0.9193889999999999 Q 2.1401169697265625 0.9193889999999999 2.1207984697265623 0.9310755 Q 2.1014799697265625 0.9427619999999999 2.0876469697265625 0.9647039999999999 Q 2.0738139697265625 0.9866459999999999 2.0664204697265625 1.0174124999999998 Q 2.0590269697265624 1.048179 2.0590269697265624 1.0868159999999998 Q 2.0590269697265624 1.1726759999999998 2.0866929697265624 1.2125054999999998 Q 2.1143589697265623 1.252335 2.172552969726562 1.252335 Q 2.189724969726562 1.252335 2.2023654697265624 1.2473265 Q 2.2150059697265623 1.2423179999999998 2.2221609697265623 1.2375479999999999 Q 2.2312239697265626 1.231347 2.2336089697265624 1.2258615 Q 2.2359939697265623 1.220376 2.2359939697265623 1.2113129999999999 L 2.2359939697265623 1.1655209999999998 Q 2.2359939697265623 1.145964 2.2321779697265622 1.1364239999999999 Q 2.228361969726562 1.126884 2.2181064697265622 1.123545 Q 2.2078509697265623 1.1202059999999998 2.1878169697265624 1.119729 L 2.1878169697265624 1.1101889999999999 Q 2.1964029697265626 1.110666 2.2078509697265623 1.1109045 Q 2.2192989697265624 1.111143 2.231939469726562 1.1113814999999998 Q 2.2445799697265625 1.1116199999999998 2.2550739697265625 1.1116199999999998 Q 2.2708149697265623 1.1116199999999998 2.2834554697265625 1.111143 Q 2.2960959697265624 1.110666 2.3046819697265626 1.1101889999999999 L 2.3046819697265626 1.119729 Q 2.294187969726562 1.1202059999999998 2.2889409697265624 1.123068 Q 2.2836939697265626 1.1259299999999999 2.2820244697265624 1.1345159999999999 Q 2.280354969726562 1.1431019999999998 2.280354969726562 1.1607509999999999 L 2.280354969726562 1.255197 L 2.2708149697265623 1.255197 Q 2.270337969726562 1.247088 2.2672374697265623 1.2375479999999999 Q 2.2641369697265623 1.228008 2.2579359697265624 1.228008 Q 2.2550739697265625 1.228008 2.2522119697265626 1.229439 Q 2.249349969726562 1.23087 2.2421949697265626 1.236117 Q 2.2264539697265624 1.2480419999999999 2.2088049697265624 1.2549584999999999 Q 2.1911559697265623 1.2618749999999999 2.1677829697265625 1.2618749999999999 Q 2.1186519697265624 1.2618749999999999 2.0835924697265624 1.2416025 Q 2.0485329697265624 1.2213299999999998 2.0299299697265623 1.1831699999999998 Q 2.0113269697265626 1.1450099999999999 2.0113269697265626 1.092063 Q 2.0113269697265626 1.036254 2.0313609697265624 0.995709 Q 2.0513949697265623 0.9551639999999999 2.0859774697265623 0.9329835 Q 2.1205599697265622 0.9108029999999999 2.1649209697265626 0.9108029999999999 M 2.7163343671875 0.9174809999999999 L 2.7163343671875 0.9270209999999999 Q 2.7001163671875 0.9274979999999999 2.6917688671875 0.9305984999999999 Q 2.6834213671875 0.9336989999999998 2.6805593671875 0.9420464999999999 Q 2.6776973671875 0.950394 2.6776973671875 0.9680429999999999 L 2.6776973671875 1.204635 Q 2.6776973671875 1.2218069999999999 2.6805593671875 1.2303929999999998 Q 2.6834213671875 1.2389789999999998 2.6917688671875 1.241841 Q 2.7001163671875 1.244703 2.7163343671875 1.2456569999999998 L 2.7163343671875 1.255197 Q 2.7053633671875 1.254243 2.6889068671875 1.2540045 Q 2.6724503671875 1.253766 2.6557553671875 1.253766 Q 2.6371523671875 1.253766 2.6209343671875 1.2540045 Q 2.6047163671875 1.254243 2.5946993671875003 1.255197 L 2.5946993671875003 1.2456569999999998 Q 2.6109173671875 1.244703 2.6192648671875 1.241841 Q 2.6276123671875 1.2389789999999998 2.6304743671875 1.2303929999999998 Q 2.6333363671875 1.2218069999999999 2.6333363671875 1.204635 L 2.6333363671875 0.9422849999999999 L 2.6352443671875 0.9437159999999999 L 2.5183793671875 1.257582 L 2.5107473671875002 1.257582 L 2.3905433671875 0.9480089999999999 L 2.3905433671875 1.199865 Q 2.3905433671875 1.217037 2.3936438671875 1.2268154999999998 Q 2.3967443671875 1.236594 2.4060458671875002 1.2406484999999998 Q 2.4153473671875 1.244703 2.4339503671875002 1.2456569999999998 L 2.4339503671875002 1.255197 Q 2.4253643671875 1.254243 2.4115313671875 1.2540045 Q 2.3976983671875 1.253766 2.3852963671875003 1.253766 Q 2.3733713671875 1.253766 2.3612078671875 1.2540045 Q 2.3490443671875 1.254243 2.3409353671875 1.255197 L 2.3409353671875 1.2456569999999998 Q 2.3571533671875002 1.244703 2.3655008671875 1.2406484999999998 Q 2.3738483671875 1.236594 2.3767103671875 1.2268154999999998 Q 2.3795723671875 1.217037 2.3795723671875 1.199865 L 2.3795723671875 0.9680429999999999 Q 2.3795723671875 0.950394 2.3767103671875 0.9420464999999999 Q 2.3738483671875 0.9336989999999998 2.3655008671875 0.9305984999999999 Q 2.3571533671875002 0.9274979999999999 2.3409353671875 0.9270209999999999 L 2.3409353671875 0.9174809999999999 Q 2.3490443671875 0.9179579999999998 2.3612078671875 0.9184349999999999 Q 2.3733713671875 0.918912 2.3852963671875003 0.918912 Q 2.3957903671875003 0.918912 2.4069998671875 0.9184349999999999 Q 2.4182093671875 0.9179579999999998 2.4258413671875 0.9174809999999999 L 2.5341203671875 1.2027269999999999 L 2.5260113671875 1.206543 L 2.6333363671875 0.918912 Q 2.6390603671875 0.918912 2.6445458671875 0.918912 Q 2.6500313671875 0.918912 2.6557553671875 0.918912 Q 2.6724503671875 0.918912 2.6889068671875 0.9184349999999999 Q 2.7053633671875 0.9179579999999998 2.7163343671875 0.9174809999999999" fill="#d75211" fill-rule="nonzero"></path></g><g transform="matrix(1,0,0,1,0,0)"></g></g><defs><clipPath id="SvgjsClipPath1001"><path d=" M 1.8106689697265623 0.5363513797987375 h 1.1005858886718751 v 1.093297240402525 h -1.1005858886718751 Z"></path></clipPath></defs></svg>